# xmcd CD database file
#
# Track frame offsets:
#	150
#	19547
#	42622
#	59972
#	85402
#	99354
#	120962
#	135532
#	156537
#	175142
#	191042
#	205777
#	221707
#
# Disc length: 3377 seconds
#
# Revision: 0
# Processed by: cddbd v1.5.1PL0 Copyright (c) Steve Scherf et al.
# Submitted via: CDex 1.51
#
DISCID=bd0d2f0d
DTITLE=Mudcat Blues Band - I Wanna Play in Your Big Back Yard
DYEAR=1900
DGENRE=Blues
TTITLE0=Kind Hearted Woman
TTITLE1=Big Back Yard
TTITLE2=Too Much of Something
TTITLE3=King Cootie Waltz
TTITLE4=Blue Shadows
TTITLE5=Terminal Man
TTITLE6=Things We Don't Talk About
TTITLE7=Burying Song
TTITLE8=Think of Me With Kindness
TTITLE9=Lucky Old Sun
TTITLE10=Easy Living
TTITLE11=Living in Paradise
TTITLE12=Highland Blues
EXTD=
EXTT0=
EXTT1=
EXTT2=
EXTT3=
EXTT4=
EXTT5=
EXTT6=
EXTT7=
EXTT8=
EXTT9=
EXTT10=
EXTT11=
EXTT12=
PLAYORDER=
